<?xml version="1.0" standalone="no"?>
<!DOCTYPE svg PUBLIC "-//W3C//DTD SVG 20010904//EN"
 "http://www.w3.org/TR/2001/REC-SVG-20010904/DTD/svg10.dtd">
<svg version="1.0" xmlns="http://www.w3.org/2000/svg"
 width="1364.000000pt" height="1364.000000pt" viewBox="0 0 1364.000000 1364.000000"
 preserveAspectRatio="xMidYMid meet">
<metadata>
Created by potrace 1.11, written by Peter Selinger 2001-2013
</metadata>
<g transform="translate(0.000000,1364.000000) scale(0.100000,-0.100000)"
fill="#000000" stroke="none">
<path d="M6060 11434 c-8 -1 -49 -8 -90 -14 -41 -7 -83 -14 -92 -16 -27 -5
-101 -41 -124 -61 -23 -20 -114 -158 -114 -173 0 -6 -3 -10 -7 -10 -5 0 -24
-27 -42 -60 -19 -33 -39 -60 -44 -60 -4 0 -6 -4 -3 -9 3 -4 -3 -16 -14 -26
-11 -10 -20 -22 -20 -26 0 -4 -40 -70 -90 -146 -49 -76 -104 -163 -122 -193
-17 -30 -34 -57 -37 -60 -8 -7 -111 -170 -111 -176 0 -3 -5 -10 -10 -17 -11
-13 -41 -58 -125 -190 -28 -43 -58 -91 -67 -105 -10 -15 -21 -34 -25 -42 -3
-8 -9 -17 -13 -20 -3 -3 -21 -30 -40 -60 -19 -30 -39 -58 -45 -62 -5 -4 -6 -8
-1 -8 5 0 2 -8 -6 -17 -18 -21 -341 -531 -371 -585 -12 -21 -24 -38 -29 -38
-4 0 -8 -5 -8 -10 0 -6 -20 -42 -45 -80 -91 -142 -132 -207 -171 -270 -21 -36
-41 -67 -45 -70 -3 -3 -23 -34 -44 -70 -22 -36 -43 -69 -48 -75 -7 -8 -108
-169 -208 -330 -10 -16 -23 -37 -29 -45 -13 -19 -50 -78 -66 -105 -6 -11 -48
-76 -93 -145 -45 -69 -88 -139 -96 -157 -8 -17 -18 -33 -22 -35 -5 -1 -15 -15
-23 -30 -8 -16 -87 -141 -175 -280 -88 -138 -162 -256 -164 -262 -2 -6 -7 -13
-11 -16 -3 -3 -24 -34 -45 -70 -21 -36 -47 -74 -57 -86 -10 -11 -18 -23 -18
-26 0 -4 -95 -156 -211 -340 -116 -183 -223 -352 -238 -375 -14 -24 -54 -86
-88 -138 -34 -52 -63 -98 -65 -103 -1 -4 -31 -52 -66 -107 -35 -55 -69 -109
-75 -119 -7 -11 -15 -25 -20 -30 -18 -26 -87 -137 -87 -142 0 -3 -5 -10 -10
-17 -27 -30 -97 -147 -92 -152 3 -3 0 -5 -6 -5 -7 0 -12 -7 -12 -15 0 -8 -3
-15 -8 -15 -4 0 -18 -20 -32 -45 -14 -25 -28 -45 -32 -45 -5 0 -8 -4 -8 -9 0
-9 -178 -300 -190 -311 -3 -3 -23 -34 -44 -70 -22 -36 -43 -66 -48 -68 -4 -2
-8 -8 -8 -14 0 -6 -22 -44 -50 -85 -27 -41 -50 -77 -50 -79 0 -3 -21 -37 -47
-77 -27 -40 -53 -81 -60 -92 -6 -11 -42 -67 -78 -125 -36 -58 -72 -114 -78
-124 -7 -11 -16 -25 -20 -30 -4 -6 -40 -63 -80 -126 -39 -63 -75 -116 -79
-118 -4 -2 -8 -9 -8 -15 0 -11 -46 -86 -70 -114 -5 -7 -10 -16 -10 -21 0 -4
-9 -18 -20 -30 -11 -12 -25 -32 -30 -44 -6 -13 -18 -35 -28 -49 -9 -14 -24
-37 -33 -50 -32 -48 -285 -450 -306 -486 -12 -21 -26 -43 -32 -50 -6 -7 -11
-17 -11 -23 0 -5 -4 -10 -10 -10 -5 0 -10 -7 -10 -15 0 -8 -4 -15 -10 -15 -5
0 -10 -5 -10 -11 0 -6 -13 -30 -30 -54 -16 -24 -30 -48 -30 -53 0 -6 -4 -12
-8 -14 -5 -1 -26 -32 -48 -68 -21 -36 -41 -67 -44 -70 -7 -7 -28 -41 -40 -65
-6 -11 -32 -54 -59 -95 -27 -41 -84 -131 -127 -200 -43 -69 -81 -127 -84 -130
-4 -3 -9 -12 -13 -20 -4 -8 -27 -46 -51 -85 -39 -62 -42 -71 -28 -80 10 -5 20
-10 25 -11 4 -1 8 -3 10 -4 1 -1 18 -3 37 -5 19 -2 49 -6 65 -9 130 -26 816
-27 970 -1 38 6 95 13 116 14 19 1 79 53 79 69 0 6 6 17 12 24 7 7 19 25 27
40 8 15 22 37 33 47 10 11 18 23 18 26 0 7 105 174 120 192 5 7 15 24 22 38 6
14 15 25 20 25 4 0 8 5 8 12 0 6 11 26 25 43 13 18 21 35 18 39 -4 3 -2 6 3 6
6 0 21 19 34 43 13 23 26 44 29 47 4 3 44 66 90 140 47 74 88 137 91 140 4 3
10 15 14 28 4 12 12 22 17 22 5 0 9 5 9 10 0 9 47 87 60 100 7 7 29 43 37 60
4 8 9 17 12 20 4 3 33 48 66 100 32 52 83 132 112 177 29 45 53 87 53 92 0 6
4 11 8 11 5 0 14 11 20 25 7 14 16 31 22 38 13 16 110 167 110 171 0 2 36 60
80 128 44 67 83 130 87 138 4 8 17 29 30 46 13 17 23 34 23 37 0 4 13 26 29
49 16 24 50 77 76 118 26 41 58 91 70 110 72 111 335 532 335 536 0 3 9 14 20
26 11 12 20 28 20 35 0 7 3 13 8 13 4 0 20 25 37 55 16 30 33 55 37 55 4 0 8
4 8 10 0 8 38 71 58 95 5 6 11 16 13 21 2 6 45 74 94 152 50 78 95 150 100
160 12 21 80 126 106 164 11 15 19 32 19 38 0 5 3 10 8 10 4 0 12 9 17 20 13
27 117 194 124 200 8 7 29 41 38 60 10 23 65 104 76 111 5 3 7 8 6 10 -2 2 40
74 95 159 54 85 103 164 109 175 7 10 18 25 25 33 6 7 12 18 12 23 0 5 5 15
10 22 11 12 51 76 100 156 14 23 43 69 65 104 22 34 62 98 89 142 28 44 54 83
59 86 5 3 8 9 8 13 -1 6 28 56 39 66 3 3 11 16 18 30 21 43 94 155 106 162 6
4 7 8 3 8 -4 0 10 26 31 58 33 50 194 304 225 357 7 11 33 53 60 94 26 40 47
75 47 76 0 1 38 63 85 136 47 74 95 152 106 174 12 22 25 42 28 45 4 3 31 46
60 95 30 50 61 98 69 108 9 10 17 25 18 34 2 9 7 19 12 22 5 3 22 28 38 54 16
27 37 61 46 75 10 15 22 36 28 47 6 11 24 40 40 65 16 25 33 52 37 60 3 8 17
29 30 46 13 17 23 34 23 38 0 3 22 40 50 81 27 41 47 75 44 75 -3 0 1 6 8 14
7 8 31 45 53 82 22 37 59 95 82 129 23 35 39 66 36 69 -4 3 -1 6 5 6 7 0 12 5
12 12 0 6 10 25 23 42 37 49 147 233 147 245 0 6 5 11 10 11 6 0 14 8 18 18 6
16 173 293 250 415 18 29 37 61 42 72 12 24 33 58 40 65 3 3 11 16 18 30 7 14
21 39 32 55 11 17 24 40 30 53 5 13 21 38 34 55 12 18 26 39 30 47 4 8 12 24
19 35 50 82 119 203 170 295 16 30 32 57 36 60 8 7 74 139 82 166 8 27 -26 44
-136 69 -21 5 -81 16 -105 19 -14 2 -59 8 -100 14 -41 5 -82 10 -90 11 -37 3
-417 8 -430 5z"/>
<path d="M7574 11420 c-3 -2 -31 -5 -62 -7 -74 -3 -177 -16 -177 -23 0 -1 -8
-3 -18 -5 -10 -2 -24 -8 -30 -14 -10 -8 -13 -481 -12 -2275 0 -1507 -3 -2262
-10 -2257 -13 9 -167 7 -182 -2 -6 -4 -14 -4 -16 0 -6 10 -139 9 -155 -1 -7
-4 -12 -2 -12 4 0 8 -6 8 -20 0 -11 -6 -20 -7 -20 -3 0 4 -51 7 -112 5 -62 -1
-119 -2 -125 -2 -7 0 -42 0 -78 0 -36 0 -72 0 -80 0 -8 0 -44 0 -80 0 -36 0
-72 0 -80 0 -8 0 -44 0 -80 0 -36 0 -71 0 -77 0 -7 0 -24 1 -38 3 -14 2 -31
-1 -37 -6 -7 -5 -13 -6 -13 -1 0 11 -241 11 -257 1 -7 -4 -14 -4 -16 0 -6 10
-139 9 -155 -1 -7 -4 -12 -2 -12 4 0 8 -6 8 -20 0 -11 -6 -20 -7 -20 -3 0 4
-51 7 -112 5 -62 -1 -119 -2 -125 -2 -7 0 -42 0 -78 0 -36 0 -71 0 -77 0 -7 0
-51 1 -96 3 -46 1 -86 -1 -89 -6 -2 -4 -10 -4 -16 0 -17 10 -137 10 -137 -1 0
-5 -6 -4 -12 1 -15 10 -138 10 -155 0 -6 -4 -14 -4 -16 0 -4 6 -67 9 -98 4
-14 -2 -58 -52 -116 -131 -34 -47 -69 -92 -78 -101 -8 -9 -15 -19 -15 -22 0
-9 -63 -101 -72 -105 -5 -2 -8 -8 -8 -13 0 -6 -20 -39 -45 -75 -25 -35 -45
-68 -45 -73 0 -5 -6 -16 -12 -23 -17 -18 -33 -45 -86 -148 -24 -47 -49 -91
-54 -97 -6 -7 -7 -13 -3 -13 4 0 3 -6 -3 -12 -14 -18 -32 -87 -26 -103 4 -9
15 -10 41 -5 20 5 45 5 57 1 11 -5 31 -5 44 0 12 5 22 5 22 -1 0 -5 12 -5 29
0 15 4 34 4 41 0 7 -5 20 -6 28 -3 13 5 100 8 112 3 17 -6 58 -4 53 3 -2 4 8
5 23 1 16 -4 33 -7 39 -6 17 2 120 4 125 2 18 -6 57 -4 53 3 -3 5 5 6 18 1 13
-4 29 -7 34 -6 26 3 133 3 162 0 17 -2 29 0 27 4 -3 5 7 6 22 2 16 -4 33 -7
39 -6 47 6 128 6 132 0 2 -5 13 -4 23 2 12 6 21 7 25 0 3 -5 16 -6 28 -2 12 4
36 6 52 5 17 -2 39 -3 50 -3 11 1 26 1 33 1 29 -2 40 -2 95 0 31 1 60 0 63 -4
3 -3 16 -3 28 1 11 4 35 6 51 5 17 -2 39 -3 50 -3 11 1 26 1 33 1 29 -2 40 -2
95 0 31 1 60 0 63 -4 3 -3 16 -3 28 1 11 4 35 6 51 5 17 -2 39 -3 50 -3 11 1
26 1 33 1 29 -2 40 -2 95 0 31 1 60 0 63 -4 3 -3 16 -3 28 1 11 4 35 6 51 5
17 -2 39 -3 50 -3 11 1 26 1 33 1 29 -2 40 -2 95 0 31 1 60 0 63 -4 3 -3 16
-3 28 1 11 4 35 6 51 5 17 -2 39 -3 50 -3 11 1 26 1 33 1 29 -2 40 -2 95 0 31
1 60 0 63 -4 3 -3 16 -3 28 1 11 4 35 6 51 5 17 -2 39 -3 50 -3 11 1 26 1 33
1 24 -2 37 -2 102 -2 36 1 72 0 80 0 8 0 40 1 70 1 30 1 65 1 77 1 l23 -1 -5
-1202 c-3 -662 -7 -1475 -8 -1807 -3 -572 -2 -606 15 -623 10 -10 24 -18 31
-19 6 0 21 -2 32 -5 28 -6 147 -22 165 -22 8 0 51 -3 95 -7 165 -13 683 -6
801 10 96 14 114 17 115 23 6 32 3 9081 -3 9094 -8 16 -30 24 -98 33 -19 2
-45 6 -56 9 -71 15 -767 30 -780 16z"/>
<path d="M12258 11405 c-4 -4 -56 -9 -115 -11 -139 -4 -251 -15 -258 -26 -36
-57 -124 -191 -214 -328 -127 -192 -135 -205 -152 -237 -7 -13 -16 -23 -21
-23 -4 0 -8 -7 -8 -15 0 -8 -4 -15 -10 -15 -5 0 -10 -4 -10 -10 0 -5 -25 -46
-55 -91 -30 -45 -55 -82 -55 -84 0 -2 -29 -46 -65 -99 -36 -53 -65 -100 -65
-105 0 -5 -4 -11 -8 -13 -4 -1 -19 -21 -32 -43 -13 -22 -28 -44 -33 -50 -5 -5
-46 -68 -92 -140 -46 -71 -88 -135 -94 -142 -6 -7 -11 -16 -11 -20 0 -5 -11
-20 -25 -35 -14 -15 -26 -31 -26 -35 0 -5 -6 -17 -14 -28 -29 -40 -65 -96 -65
-101 0 -3 -5 -10 -11 -17 -5 -7 -71 -104 -144 -217 -74 -113 -139 -212 -144
-220 -6 -8 -61 -91 -122 -185 -61 -93 -128 -196 -150 -228 -21 -32 -39 -63
-39 -68 0 -5 -4 -9 -10 -9 -5 0 -10 -7 -10 -15 0 -9 -7 -18 -15 -21 -8 -4 -15
-10 -15 -15 0 -11 -112 -183 -122 -187 -4 -2 -8 -8 -8 -14 0 -5 -13 -28 -29
-51 -16 -23 -48 -72 -72 -109 -24 -38 -47 -68 -51 -68 -4 0 -7 -4 -5 -8 2 -7
-146 -239 -176 -277 -4 -5 -37 -55 -72 -110 -36 -55 -69 -107 -75 -115 -6 -8
-40 -60 -75 -115 -35 -55 -69 -106 -75 -113 -7 -7 -17 -23 -23 -35 -7 -12 -40
-64 -74 -114 -35 -51 -63 -96 -63 -100 0 -5 -14 -23 -30 -42 -17 -18 -30 -39
-30 -45 0 -6 -9 -22 -20 -36 -32 -39 -130 -191 -130 -201 0 -5 -4 -9 -9 -9 -5
0 -14 -13 -21 -30 -7 -16 -15 -30 -19 -30 -4 0 -15 -16 -25 -35 -19 -35 -19
-35 2 -58 12 -13 22 -29 22 -35 0 -7 5 -12 10 -12 6 0 10 -6 10 -14 0 -8 3
-16 8 -18 4 -1 26 -30 48 -63 109 -160 306 -443 324 -465 11 -14 20 -30 20
-37 0 -6 3 -13 8 -15 11 -5 82 -107 82 -118 0 -6 4 -10 10 -10 5 0 17 -15 26
-32 9 -18 20 -35 24 -38 3 -3 46 -63 94 -133 123 -181 213 -310 223 -322 5 -5
42 -59 82 -120 41 -60 77 -112 80 -115 3 -3 11 -12 16 -21 6 -8 33 -48 60 -88
28 -41 55 -81 60 -90 6 -9 13 -18 16 -21 3 -3 23 -32 44 -65 22 -33 42 -62 45
-65 4 -3 26 -34 50 -70 24 -36 46 -67 49 -70 3 -3 11 -13 16 -22 19 -32 190
-280 203 -293 6 -8 12 -16 12 -20 0 -3 5 -11 11 -18 6 -7 73 -102 149 -212 76
-110 142 -204 147 -210 5 -5 35 -50 68 -100 33 -49 63 -92 66 -95 3 -3 41 -57
84 -120 44 -63 83 -116 87 -118 4 -2 8 -9 8 -16 0 -7 9 -21 20 -31 11 -10 20
-22 20 -27 0 -5 5 -14 10 -21 6 -7 28 -37 50 -67 22 -30 43 -60 47 -66 4 -5
13 -17 18 -26 19 -31 159 -233 164 -238 14 -12 71 -99 71 -108 0 -5 7 -13 16
-16 9 -4 14 -9 11 -12 -3 -4 7 -20 23 -38 17 -17 30 -37 30 -43 0 -7 5 -13 10
-13 6 0 10 -7 10 -15 0 -8 5 -15 10 -15 6 0 10 -7 10 -15 0 -8 4 -15 8 -15 4
0 16 -13 25 -30 10 -16 23 -35 30 -43 7 -7 17 -20 22 -29 19 -32 184 -266 197
-279 7 -8 19 -26 27 -42 8 -15 18 -27 21 -27 4 0 13 -14 20 -30 7 -17 16 -30
21 -30 5 0 14 -11 20 -24 13 -28 50 -50 87 -52 15 -1 27 -2 27 -4 0 -1 20 -3
45 -5 25 -2 90 -6 145 -10 118 -9 935 -12 935 -5 0 3 15 6 33 7 42 1 162 11
162 13 0 1 8 3 18 5 50 9 50 12 -20 112 -37 54 -71 100 -75 101 -4 2 -8 8 -8
12 0 11 -162 244 -172 248 -5 2 -8 9 -8 16 0 7 -8 21 -17 32 -30 34 -63 83
-63 94 0 5 -3 10 -7 10 -5 0 -24 25 -43 55 -19 30 -38 55 -42 55 -5 0 -8 5 -8
10 0 9 -35 65 -50 80 -3 3 -25 34 -49 70 -80 119 -106 155 -113 158 -5 2 -8 9
-8 15 0 6 -8 20 -19 31 -10 12 -56 77 -102 146 -46 69 -87 127 -91 128 -5 2
-8 10 -8 17 0 7 -4 15 -8 17 -5 1 -37 46 -73 98 -35 52 -72 104 -81 114 -10
11 -18 25 -18 32 0 7 -4 14 -8 16 -4 1 -37 46 -72 98 -36 52 -67 97 -70 100
-14 13 -50 70 -50 79 0 5 -4 11 -8 13 -4 2 -28 32 -52 68 -25 36 -48 67 -52
68 -5 2 -8 7 -8 12 0 5 -53 84 -117 177 -162 232 -196 281 -208 300 -5 9 -18
26 -27 37 -10 11 -18 23 -18 27 0 4 -6 14 -13 21 -6 7 -30 40 -52 73 -22 33
-42 62 -45 65 -3 3 -22 30 -42 60 -20 30 -64 93 -98 140 -33 47 -63 92 -67
100 -4 8 -9 17 -12 20 -3 3 -15 19 -27 35 -11 17 -41 59 -65 95 -25 36 -76
110 -114 165 -38 55 -71 102 -75 105 -3 3 -25 36 -50 74 -24 38 -49 74 -55 80
-5 7 -14 19 -20 28 -27 45 -119 173 -127 176 -4 2 -8 8 -8 13 0 5 -21 39 -47
77 -26 37 -84 121 -130 187 -45 66 -86 125 -90 130 -5 6 -28 39 -52 75 -24 36
-48 67 -53 68 -4 2 -8 8 -8 13 0 10 -35 62 -57 87 -7 7 -13 17 -13 22 0 5 -6
15 -13 22 -7 7 -32 41 -55 75 -23 34 -46 64 -52 68 -12 8 45 104 156 260 8 11
28 43 46 70 18 28 36 52 40 53 5 2 6 8 2 13 -3 5 -1 9 4 9 4 0 19 19 32 41 12
23 30 50 39 59 9 10 27 37 41 60 14 23 33 51 43 63 9 11 17 26 17 32 0 7 7 16
16 19 8 3 13 10 10 15 -4 5 -3 11 2 13 4 1 66 91 137 198 72 107 133 197 136
200 3 3 8 10 10 15 2 6 41 65 87 132 45 67 82 127 82 132 0 5 4 11 8 13 9 3
37 44 138 198 38 58 72 107 77 108 4 2 7 7 7 11 0 5 119 187 265 406 146 219
265 399 265 402 0 2 5 9 11 16 6 7 77 113 159 237 82 124 153 230 157 235 5 6
42 62 83 125 41 63 78 117 82 118 4 2 8 10 8 18 0 8 5 14 10 14 6 0 10 4 10 9
0 9 116 189 129 201 3 3 15 21 25 40 11 19 24 40 29 45 20 24 177 267 177 275
0 4 3 10 8 12 11 5 52 66 52 78 0 5 4 10 9 10 5 0 12 8 15 18 3 9 17 30 31 46
14 16 25 35 25 43 0 7 3 13 8 13 4 0 18 20 32 45 14 25 28 45 32 45 5 0 8 5 8
10 0 6 5 16 11 23 6 7 39 56 74 109 52 80 60 98 47 102 -29 9 -258 26 -349 26
-7 0 -19 0 -25 0 -361 5 -558 3 -558 -4 0 -6 -5 -5 -11 1 -8 8 -20 8 -35 3
-14 -6 -24 -5 -26 1 -2 6 -6 7 -10 4z"/>
</g>
</svg>
