<?xml version="1.0" encoding="utf-8"?>
<!-- Generator: Adobe Illustrator 18.0.0, SVG Export Plug-In . SVG Version: 6.00 Build 0)  -->
<!DOCTYPE svg PUBLIC "-//W3C//DTD SVG 1.1//EN" "http://www.w3.org/Graphics/SVG/1.1/DTD/svg11.dtd">
<svg version="1.1" xmlns="http://www.w3.org/2000/svg" xmlns:xlink="http://www.w3.org/1999/xlink" x="0px" y="0px"
	 viewBox="0 0 1013.5 133" enable-background="new 0 0 1013.5 133" xml:space="preserve">
<g id="Capa_5" display="none">
</g>
<g id="Flash_y_colores" display="none">
	<path display="inline" d="M-107.2,219.4L110.6-95.8c4.8-7,14.3-8.8,21.1-4.1h0c8-1.2,9.4,9.2,3.6,21.2L-70.9,219"/>
	<path display="inline" d="M193.2-95.3L193.2-95.3c-8.2-0.1-15.1,6.6-15.1,14.9L177,205.1c-0.1,8.2,6.6,15.1,14.9,15.1h0
		c8.2,0.1,15.1-6.6,15.1-14.9l1.1-285.5C208.2-88.4,201.5-95.2,193.2-95.3z"/>
	<path display="inline" d="M174,70.8L174,70.8c0-8.2-6.7-15-14.9-15.1L55,55.3c-8.2,0-15,6.7-15.1,14.9v0c0,8.2,6.7,15,14.9,15.1
		l104.1,0.5C167.2,85.8,174,79.1,174,70.8z"/>
	<path display="inline" d="M388.5-104.9L244.7,30.9c-5.3,5-5.1,14.1,0.6,20.1l0,0c5.7,6,14.7,6.8,20,1.7l163.6-155.2"/>
	<path display="inline" d="M385.1,219.2l38,0.9L263,72.2c-5.5-5-13.8-4.9-18.6,0.3l0,0c-4.8,5.2-4.2,13.6,1.3,18.6L385.1,219.2z"/>
	<line display="inline" fill="none" x1="423.1" y1="220.2" x2="428.9" y2="-102.5"/>
	
		<line display="inline" fill="none" stroke="#000000" stroke-width="15" stroke-miterlimit="10" x1="423.1" y1="223.2" x2="428.9" y2="-102.5"/>
</g>
<g id="Logo_final">
	<g>
		<g>
			<g>
				<path fill="#FF6464" d="M0,132.1c1.3,1.3,17.6,1.1,18.6,0.1C19.3,131.1,101,2.7,99.8,1.5s-14.4-2.7-17.1,0
					C79.8,5.7,0,132.1,0,132.1z"/>
				<path fill="#FF6464" d="M104.2,131.6c1.5,1.5,18.2,1.1,18.2,0.4c0-2.1,0-130.9,0-130.9c0-1.1-17-1.4-18,0c0,1.8,0,63.8,0,63.8
					l0,0v1.3L104.2,131.6z"/>
				<path fill="#FF6464" d="M113.5,66.1c0,0-45.6,0-46.2,0c-1.6,1-9.6,11-9.6,14c0.9,0,55.9,0,55.9,0"/>
			</g>
			<path fill="#FF6464" d="M128.9,65.6l42.3-64.5c0.7-0.7,19.5-0.7,20.2,0c-17.6,26.7-42,63.1-42,63.1l47,68c-1,1-20.4,0.8-21.2,0
				S128.9,65.6,128.9,65.6z"/>
		</g>
		<g>
			<rect x="269.7" y="19" fill="none" width="786.8" height="95.1"/>
			<path fill="#FF6464" d="M326.7,91.4h-35.2l-6.3,21.1c-1.1,0.2-2.2,0.3-3.4,0.4c-1.1,0.1-2.2,0.1-3.4,0.1c-1.2,0-2.4,0-3.5-0.1
				c-1.2-0.1-2.2-0.2-3.2-0.4L302,21.3c1.1-0.2,2.3-0.3,3.6-0.4s2.6-0.1,4-0.1c1.2,0,2.5,0,3.7,0.1s2.5,0.2,3.7,0.4l30.1,91.2
				c-1,0.2-2.2,0.3-3.5,0.4c-1.3,0.1-2.5,0.1-3.7,0.1c-1.1,0-2.3,0-3.4-0.1c-1.2-0.1-2.3-0.2-3.3-0.4L326.7,91.4z M295,80.1h28.3
				l-14.2-46.5L295,80.1z"/>
			<path fill="#FF6464" d="M359.6,47.4c0.9-0.2,1.8-0.3,2.7-0.4c0.9-0.1,1.8-0.1,2.7-0.1c0.9,0,1.9,0,2.8,0.1
				c0.9,0.1,1.8,0.2,2.6,0.4c0.3,1.3,0.5,2.9,0.8,5c0.3,2.1,0.4,3.8,0.4,5.3c1.8-2.9,4.2-5.4,7.2-7.5c3-2.1,6.8-3.2,11.4-3.2
				c0.7,0,1.4,0,2.1,0.1c0.7,0,1.4,0.1,1.9,0.2c0.2,0.8,0.3,1.6,0.4,2.4c0.1,0.8,0.1,1.7,0.1,2.7c0,1-0.1,2.1-0.2,3.2
				s-0.3,2.2-0.5,3.2c-0.7-0.2-1.4-0.3-2.1-0.3c-0.7,0-1.3,0-1.7,0c-2.3,0-4.5,0.3-6.6,1c-2.1,0.6-4,1.8-5.7,3.4
				c-1.7,1.6-3,3.8-4,6.6c-1,2.8-1.5,6.4-1.5,10.8v32.3c-0.9,0.2-2,0.3-3.2,0.4c-1.2,0.1-2.2,0.1-3.2,0.1c-0.9,0-2,0-3.2-0.1
				c-1.2-0.1-2.3-0.2-3.3-0.4V47.4z"/>
			<path fill="#FF6464" d="M415.6,57.3h-8.4c-0.2-0.7-0.3-1.5-0.4-2.3c-0.1-0.9-0.1-1.8-0.1-2.6c0-0.8,0-1.7,0.1-2.6
				c0.1-0.9,0.2-1.7,0.4-2.3h20.9v65.1c-0.9,0.2-2,0.3-3.2,0.4c-1.2,0.1-2.2,0.1-3.2,0.1c-0.9,0-1.9,0-3-0.1
				c-1.2-0.1-2.2-0.2-3.2-0.4V57.3z M412.8,33.1c-0.2-1-0.3-2.1-0.3-3.3c0-1.2-0.1-2.2-0.1-3.2c0-0.9,0-2,0.1-3.2
				c0-1.2,0.1-2.2,0.3-3.2c1.1-0.2,2.3-0.3,3.6-0.4c1.3-0.1,2.4-0.1,3.4-0.1c0.9,0,2.1,0,3.4,0.1c1.3,0.1,2.5,0.2,3.5,0.4
				c0.2,0.9,0.3,2,0.3,3.2c0,1.2,0.1,2.2,0.1,3.2c0,0.9,0,2-0.1,3.2c0,1.2-0.2,2.3-0.3,3.3c-1,0.2-2.2,0.3-3.4,0.4
				c-1.2,0.1-2.3,0.1-3.3,0.1c-1,0-2.2,0-3.5-0.1C415.1,33.3,413.9,33.2,412.8,33.1z"/>
			<path fill="#FF6464" d="M459.7,83c0.2,7.1,2,12.3,5.6,15.6c3.6,3.3,8.8,4.9,15.8,4.9c6.1,0,11.9-1.1,17.4-3.2
				c0.7,1.3,1.2,2.8,1.7,4.6c0.4,1.8,0.7,3.6,0.8,5.4c-2.8,1.2-6,2.1-9.4,2.7c-3.4,0.6-7.2,0.9-11.3,0.9c-6,0-11.2-0.8-15.5-2.5
				c-4.3-1.6-7.8-4-10.6-7c-2.8-3-4.8-6.6-6.1-10.7c-1.3-4.1-1.9-8.6-1.9-13.5c0-4.8,0.6-9.3,1.9-13.5c1.2-4.2,3.2-7.8,5.7-10.9
				c2.6-3.1,5.8-5.5,9.7-7.4c3.9-1.8,8.5-2.7,13.9-2.7c4.6,0,8.6,0.8,12,2.3c3.4,1.5,6.3,3.6,8.6,6.3c2.3,2.7,4.1,5.8,5.3,9.5
				c1.2,3.7,1.8,7.7,1.8,12c0,1.2,0,2.4-0.1,3.7c-0.1,1.3-0.2,2.4-0.3,3.4H459.7z M492.5,73.6c0-2.4-0.3-4.6-1-6.8
				c-0.6-2.2-1.6-4-2.8-5.6c-1.2-1.6-2.8-2.9-4.8-3.9c-1.9-1-4.2-1.5-6.9-1.5c-5.2,0-9.3,1.6-12.1,4.7c-2.8,3.1-4.5,7.5-5.1,13.1
				H492.5z"/>
			<path fill="#FF6464" d="M521.7,19.5c0.9-0.2,2-0.3,3.2-0.4S527,19,528,19c0.9,0,2,0,3.2,0.1s2.2,0.2,3.2,0.4v73.3
				c0,2.4,0.2,4.2,0.6,5.6c0.4,1.4,1,2.4,1.7,3.1c0.7,0.7,1.6,1.2,2.6,1.4c1,0.2,2,0.3,3.2,0.3c0.8,0,1.7,0,2.6-0.1
				c1-0.1,1.8-0.2,2.5-0.4c0.8,3,1.2,6.2,1.2,9.6c-1.2,0.4-2.7,0.7-4.4,0.8c-1.7,0.1-3.3,0.2-4.8,0.2c-2.5,0-4.8-0.3-7-0.9
				c-2.2-0.6-4-1.6-5.7-2.9c-1.6-1.4-2.9-3.2-3.9-5.5c-0.9-2.3-1.4-5.1-1.4-8.5V19.5z"/>
			<path fill="#FF6464" d="M589.7,21.1c1.6-0.3,3.2-0.4,4.8-0.5c1.5-0.1,3.1-0.1,4.8-0.1c1.5,0,3,0,4.5,0.1c1.5,0.1,3.1,0.3,4.8,0.5
				v91.4c-1.6,0.3-3.2,0.4-4.8,0.5c-1.5,0.1-3.1,0.1-4.6,0.1c-1.5,0-3.1,0-4.6-0.1c-1.5-0.1-3.1-0.3-4.8-0.5V21.1z M611.2,66.5
				l25.2-45.3c2-0.3,3.8-0.5,5.5-0.6s3.2-0.1,4.6-0.1c1.5,0,3.1,0.1,4.9,0.3c1.8,0.2,3.7,0.3,5.7,0.5l-25.4,44l27.6,47.2
				c-2,0.2-3.9,0.3-5.7,0.5c-1.9,0.2-3.5,0.3-5,0.3c-1.4,0-2.9,0-4.6-0.1c-1.7-0.1-3.5-0.3-5.6-0.6L611.2,66.5z"/>
			<path fill="#FF6464" d="M703.4,114c-7,0-13-1.2-18.1-3.6c-5.1-2.4-9.2-5.6-12.5-9.8c-3.3-4.2-5.7-9.1-7.3-14.8
				c-1.6-5.7-2.4-11.9-2.4-18.7c0-6.8,0.8-13,2.4-18.8c1.6-5.8,4-10.8,7.3-15c3.3-4.2,7.4-7.5,12.5-9.9c5.1-2.4,11.1-3.6,18.1-3.6
				s13,1.2,18.1,3.6c5.1,2.4,9.2,5.7,12.5,9.9c3.3,4.2,5.7,9.2,7.3,15c1.6,5.8,2.4,12.1,2.4,18.8c0,6.8-0.8,13-2.4,18.7
				c-1.6,5.7-4,10.7-7.3,14.8c-3.3,4.2-7.4,7.5-12.5,9.8C716.4,112.8,710.4,114,703.4,114z M703.4,98.5c13.3,0,20-10.5,20-31.5
				c0-10.5-1.6-18.3-4.8-23.6c-3.2-5.2-8.2-7.9-15-7.9c-13.5,0-20.3,10.5-20.3,31.5C683.3,88,690,98.5,703.4,98.5z"/>
			<path fill="#FF6464" d="M760.5,21.3c3.2-0.5,6.3-0.8,9.4-0.8c3.1,0,6.3,0.3,9.5,0.8V57h31.1V21.3c3.2-0.5,6.3-0.8,9.4-0.8
				c3.1,0,6.3,0.3,9.5,0.8v91.2c-3.3,0.5-6.4,0.8-9.4,0.8c-3.2,0-6.4-0.3-9.5-0.8V73h-31.1v39.4c-3.3,0.5-6.4,0.8-9.4,0.8
				c-3.2,0-6.4-0.3-9.5-0.8V21.3z"/>
			<path fill="#FF6464" d="M869.1,21.3c1.8-0.3,3.5-0.4,5.2-0.6c1.6-0.1,3.4-0.2,5.4-0.2c1.7,0,3.4,0.1,5,0.2
				c1.6,0.1,3.4,0.3,5.4,0.6l29,91.2c-3.5,0.5-7,0.8-10.3,0.8c-3.3,0-6.5-0.3-9.5-0.8l-5.2-18.3h-30.7l-5.3,18.3
				c-3.1,0.5-6.1,0.8-8.9,0.8c-3.2,0-6.3-0.3-9.4-0.8L869.1,21.3z M889.7,78.8L879,40.5l-11.2,38.3H889.7z"/>
			<path fill="#FF6464" d="M929.6,21.3c2.7-0.5,5.2-0.8,7.6-0.8c2.6,0,5.2,0.3,8,0.8l35.9,58.1V21.3c3.1-0.5,6.1-0.8,8.9-0.8
				c2.7,0,5.2,0.3,7.7,0.8v91.2c-2.8,0.5-5.2,0.8-7.5,0.8c-2.4,0-5-0.3-7.9-0.8l-36.1-58v58c-2.8,0.5-5.5,0.8-8.4,0.8
				c-2.8,0-5.6-0.3-8.3-0.8V21.3z"/>
		</g>
	</g>
</g>
<g id="Pruebas_logo" display="none">
</g>
</svg>
