<?xml version="1.0" encoding="utf-8"?>
<!-- Generator: Adobe Illustrator 18.0.0, SVG Export Plug-In . SVG Version: 6.00 Build 0)  -->
<!DOCTYPE svg PUBLIC "-//W3C//DTD SVG 1.1//EN" "http://www.w3.org/Graphics/SVG/1.1/DTD/svg11.dtd">
<svg version="1.1" xmlns="http://www.w3.org/2000/svg" xmlns:xlink="http://www.w3.org/1999/xlink" x="0px" y="0px"
	 viewBox="0 0 340.7 230.7" enable-background="new 0 0 340.7 230.7" xml:space="preserve">
<g id="Logo_final">
	<g>
		<g>
			<path d="M0,229.1c2.3,2.3,30.5,1.8,32.2,0.1C33.5,227.3,175.1,4.7,173,2.6s-25-4.6-29.6,0C138.4,9.9,0,229.1,0,229.1z"/>
			<path d="M181.2,228.3c2.6,2.6,31.5,1.9,31.5,0.6c0-3.6,0-227,0-227c-1-1.8-29-2.4-31,0c0,3.1,0,110.7,0,110.7l0,0v2.3
				L181.2,228.3z"/>
			<path d="M181.7,114.8c0,0-66.8,0-67.8,0c-2.3,2-14,19-14,23c1.3,0,81.8,0,81.8,0"/>
		</g>
		<path d="M223.5,113.7L296.9,1.8c1.2-1.2,33.8-1.2,35,0c-30.5,46.3-72.8,109.5-72.8,109.5l81.6,117.9c-1.8,1.8-35.4,1.4-36.8,0
			C302.4,227.8,223.5,113.7,223.5,113.7z"/>
	</g>
</g>
<g id="Flash_y_colores" display="none">
</g>
<g id="Pruebas_logo" display="none">
	<rect x="-234.7" y="149.8" display="inline" width="799.3" height="313.7"/>
	<rect x="-238.1" y="-138.2" display="inline" fill="#FFFFFF" width="802.1" height="289.6"/>
	<g display="inline">
		<rect x="4.9" y="61.9" fill="none" width="421.3" height="44.2"/>
		<text transform="matrix(1.0173 0 0 1 4.9064 105.4087)"><tspan x="0" y="0" font-family="'Aller-Light'" font-size="58.9825">Ariel</tspan><tspan x="121.3" y="0" font-family="'MyriadPro-Regular'" font-size="58.9825"> </tspan><tspan x="133.8" y="0" font-family="'Aller-Bold'" font-size="58.9825">KOHAN</tspan></text>
	</g>
	<g display="inline">
		<rect x="4.9" y="218" fill="none" width="421.3" height="44.2"/>
		<text transform="matrix(1.0173 0 0 1 4.9134 261.4564)"><tspan x="0" y="0" fill="#FFFFFF" font-family="'Aller-Light'" font-size="58.9825">Ariel</tspan><tspan x="121.3" y="0" fill="#FFFFFF" font-family="'MyriadPro-Regular'" font-size="58.9825"> </tspan><tspan x="133.8" y="0" fill="#FFFFFF" font-family="'Aller-Bold'" font-size="58.9825">KOHAN</tspan></text>
	</g>
</g>
</svg>
